# xmcd
#
# Track frame offsets:
#	150
#	1629
#	9687
#	26202
#	57327
#	79644
#	88826
#	98051
#	138637
#	167004
#	210715
#
# Disc length: 4077 seconds
#
# Revision: 1
# Processed by: cddbd v1.5.2PL0 Copyright (c) Steve Scherf et al.
# Submitted via: audiograbber 1.83.01
#
DISCID=870feb0b
DTITLE=Grateful Dead - 70-04-09 Fillmore West, San Francisco CA
DYEAR=1900
DGENRE=
TTITLE0=Drums
TTITLE1=Good Lovin'
TTITLE2=Drums
TTITLE3=Good Lovin'
TTITLE4=Cowboy Song
TTITLE5=Cryptical Envelopment
TTITLE6=Drums
TTITLE7=The Other One
TTITLE8=Cryptical Envelopment
TTITLE9=Not Fade Away
TTITLE10=Turn On Your Lovelight
EXTD=
EXTT0=
EXTT1=
EXTT2=
EXTT3=
EXTT4=
EXTT5=
EXTT6=
EXTT7=
EXTT8=
EXTT9=
EXTT10=
PLAYORDER=
